<svg xmlns="http://www.w3.org/2000/svg" xmlns:xlink="http://www.w3.org/1999/xlink" width="1920" zoomAndPan="magnify" viewBox="0 0 1440 809.999994" height="1200" preserveAspectRatio="xMidYMid meet" version="1.0"><defs><g/><clipPath id="064fa93288"><rect x="0" width="1088" y="0" height="749"/></clipPath><clipPath id="b1830b015d"><path d="M 1121.515625 328.386719 L 1271.515625 328.386719 L 1271.515625 478.386719 L 1121.515625 478.386719 Z M 1121.515625 328.386719 " clip-rule="nonzero"/></clipPath><clipPath id="a226cf4931"><path d="M 1130.164062 282.234375 L 1317.664062 282.234375 L 1317.664062 469.734375 L 1130.164062 469.734375 Z M 1130.164062 282.234375 " clip-rule="nonzero"/></clipPath><clipPath id="c77fd66ba3"><path d="M 1146.308594 235.324219 L 1364.558594 235.324219 L 1364.558594 453.574219 L 1146.308594 453.574219 Z M 1146.308594 235.324219 " clip-rule="nonzero"/></clipPath></defs><rect x="-144" width="1728" fill="#ffffff" y="-80.999999" height="971.999993" fill-opacity="1"/><rect x="-144" width="1728" fill="#ffffff" y="-80.999999" height="971.999993" fill-opacity="1"/><g transform="matrix(1, 0, 0, 1, 112, 61)"><g clip-path="url(#064fa93288)"><g fill="#000000" fill-opacity="1"><g transform="translate(1.231523, 608.262917)"><g><path d="M 241.417969 0 C 278.378906 0 312.949219 -3.578125 312.949219 -53.648438 L 312.949219 -231.285156 C 312.949219 -281.359375 278.378906 -284.933594 241.417969 -284.933594 L 98.953125 -284.933594 L 98.953125 -397.597656 L 28.015625 -397.597656 L 28.015625 0 Z M 242.015625 -84.644531 C 242.015625 -67.953125 231.882812 -67.359375 215.785156 -67.359375 L 98.953125 -67.359375 L 98.953125 -217.574219 L 215.785156 -217.574219 C 231.882812 -217.574219 242.015625 -216.980469 242.015625 -200.289062 Z M 242.015625 -84.644531 "/></g></g></g><g fill="#000000" fill-opacity="1"><g transform="translate(305.240137, 608.262917)"><g><path d="M 170.484375 -217.574219 L 170.484375 -284.933594 L 28.015625 -284.933594 L 28.015625 0 L 98.953125 0 L 98.953125 -217.574219 Z M 170.484375 -217.574219 "/></g></g></g><g fill="#000000" fill-opacity="1"><g transform="translate(455.456121, 608.262917)"><g><path d="M 242.015625 0 L 312.949219 0 L 312.949219 -231.285156 C 312.949219 -281.359375 278.378906 -284.933594 241.417969 -284.933594 L 28.015625 -284.933594 L 28.015625 0 L 98.953125 0 L 98.953125 -217.574219 L 215.785156 -217.574219 C 231.882812 -217.574219 242.015625 -216.980469 242.015625 -200.289062 Z M 242.015625 0 "/></g></g></g><g fill="#000000" fill-opacity="1"><g transform="translate(759.464735, 608.262917)"><g><path d="M 170.484375 -217.574219 L 170.484375 -284.933594 L 28.015625 -284.933594 L 28.015625 0 L 98.953125 0 L 98.953125 -217.574219 Z M 170.484375 -217.574219 "/></g></g></g><g fill="#000000" fill-opacity="1"><g transform="translate(909.680719, 608.262917)"><g><path d="M 170.484375 -217.574219 L 170.484375 -284.933594 L 28.015625 -284.933594 L 28.015625 0 L 98.953125 0 L 98.953125 -217.574219 Z M 170.484375 -217.574219 "/></g></g></g></g></g><g clip-path="url(#b1830b015d)"><path fill="#000000" d="M 1219.140625 380.800781 C 1194.941406 356.589844 1163.699219 343.945312 1128.558594 342.917969 C 1124.6875 342.800781 1121.589844 339.613281 1121.601562 335.726562 L 1121.601562 335.402344 C 1121.617188 331.511719 1124.777344 328.359375 1128.660156 328.386719 C 1167.140625 328.640625 1202.863281 343.367188 1229.710938 370.242188 C 1256.574219 397.121094 1271.273438 432.839844 1271.496094 471.316406 C 1271.511719 475.203125 1268.371094 478.375 1264.480469 478.375 L 1264.15625 478.375 C 1260.253906 478.375 1257.082031 475.292969 1256.960938 471.40625 C 1255.964844 436.28125 1243.335938 405.027344 1219.140625 380.800781 Z M 1219.140625 380.800781 " fill-opacity="1" fill-rule="nonzero"/></g><g clip-path="url(#a226cf4931)"><path fill="#000000" d="M 1252.289062 347.65625 C 1222.085938 317.433594 1183.09375 301.65625 1139.230469 300.375 C 1134.398438 300.226562 1130.53125 296.25 1130.550781 291.398438 L 1130.550781 290.988281 C 1130.570312 286.136719 1134.511719 282.199219 1139.359375 282.234375 C 1187.386719 282.550781 1231.972656 300.933594 1265.484375 334.476562 C 1299.015625 368.023438 1317.359375 412.609375 1317.636719 460.632812 C 1317.65625 465.480469 1313.734375 469.441406 1308.882812 469.441406 L 1308.476562 469.441406 C 1303.605469 469.441406 1299.648438 465.59375 1299.496094 460.742188 C 1298.253906 416.902344 1282.492188 377.890625 1252.289062 347.65625 Z M 1252.289062 347.65625 " fill-opacity="1" fill-rule="nonzero"/></g><g clip-path="url(#c77fd66ba3)"><path fill="#000000" d="M 1288.230469 311.714844 C 1252.960938 276.429688 1207.429688 258.003906 1156.210938 256.507812 C 1150.566406 256.332031 1146.054688 251.6875 1146.074219 246.023438 L 1146.074219 245.546875 C 1146.097656 239.882812 1150.699219 235.28125 1156.363281 235.324219 C 1212.441406 235.695312 1264.507812 257.15625 1303.640625 296.328125 C 1342.789062 335.5 1364.210938 387.5625 1364.539062 443.636719 C 1364.558594 449.300781 1359.980469 453.925781 1354.316406 453.925781 L 1353.835938 453.925781 C 1348.152344 453.925781 1343.53125 449.433594 1343.355469 443.769531 C 1341.902344 392.574219 1323.496094 347.023438 1288.230469 311.714844 Z M 1288.230469 311.714844 " fill-opacity="1" fill-rule="nonzero"/></g></svg>